#!OML:ASF H:\BreakDance\Project 1\Capture day 1\Session 1\Male.ASF
:FULLY-SPECIFIED
:DEGREES
531
root 4.1014 13.0999 -4.97534 -539.493 -133.756 514.619
lowerback 9.22477 1.28075 -5.3657
upperback 4.19759 1.12262 -2.29786
thorax -0.8651 0.476916 0.525347
lowerneck -3.10407 -1.66757 -0.0322598
upperneck -32.2668 -3.19343 0.796329
head -9.69865 -1.80646 0.549253
rclavicle -1.98785e-015 -9.54166e-015
rhumerus 26.905 8.93742 -80.2949
rradius 29.5573
rwrist -9.30466
rhand -32.8845 -33.1464
rfingers 7.12502
rthumb -6.10268 -63.0385
lclavicle -1.98785e-015 -9.54166e-015
lhumerus 18.5878 -24.5488 88.1237
lradius 27.5258
lwrist 21.7011
lhand -43.1588 -24.6364
lfingers 7.12502
lthumb -16.0113 4.72199
rfemur -47.9934 -12.0338 14.4144
rtibia 72.4106
rfoot -18.8269 -12.4966
rtoes 25.0588
lfemur -45.6086 9.47669 -12.9222
ltibia 82.1776
lfoot -25.8778 5.33178
ltoes -10.4907
532
root 3.97789 13.1673 -4.97456 -540.809 -134.974 514.392
lowerback 9.23572 0.949407 -5.28062
upperback 4.25628 0.701933 -2.08451
thorax -0.791579 0.266362 0.740964
lowerneck -3.22711 -1.67696 -0.0716614
upperneck -32.6013 -3.24487 0.737104
head -9.8041 -1.81686 0.54101
rclavicle -4.09496e-014 3.81667e-014
rhumerus 31.7311 10.586 -77.0348
rradius 32.5889
rwrist -10.6894
rhand -33.4269 -32.1536
rfingers 7.12502
rthumb -6.62636 -62.03
lclavicle -4.09496e-014 3.81667e-014
lhumerus 24.5502 -27.4371 86.8184
lradius 30.7898
lwrist 20.054
lhand -44.1924 -26.8139
lfingers 7.12502
lthumb -17.0064 2.4616
rfemur -50.1858 -10.6557 13.394
rtibia 67.3335
rfoot -18.0788 -12.7921
rtoes 25.7531
lfemur -43.4285 8.87235 -12.0798
ltibia 81.6207
lfoot -25.9368 4.66049
ltoes -10.774
533
root 3.85114 13.2476 -4.96712 -541.985 -136.11 514.15
lowerback 9.13118 0.636835 -5.16735
upperback 4.22929 0.313959 -1.86761
thorax -0.743168 0.0747717 0.94087
lowerneck -3.34622 -1.6639 -0.196677
upperneck -32.8814 -3.24861 0.731694
head -9.88776 -1.79904 0.562539
rclavicle -1.04958e-013 2.8625e-014
rhumerus 36.402 11.5831 -73.4673
rradius 35.7393
rwrist -12.1135
rhand -33.9841 -31.0378
rfingers 7.12502
rthumb -7.16425 -60.8966
lclavicle -1.04958e-013 2.8625e-014
lhumerus 30.6095 -29.783 84.7055
lradius 34.2832
lwrist 18.4379
lhand -45.1008 -28.975
lfingers 7.12502
lthumb -17.8807 0.222991
rfemur -52.2093 -9.37834 12.1215
rtibia 62.2871
rfoot -17.2583 -13.3125
rtoes 26.6333
lfemur -41.2935 8.34049 -11.2533
ltibia 80.9185
lfoot -25.9579 3.9812
ltoes -10.8851
534
root 3.7202 13.3425 -4.95195 -543.12 -137.13 513.98
lowerback 8.93745 0.37289 -5.03874
upperback 4.15346 -0.00539392 -1.68187
thorax -0.69859 -0.0813483 1.092
lowerneck -3.60545 -1.64988 -0.428309
upperneck -33.0738 -3.22514 0.819463
head -9.9093 -1.76471 0.630221
rclavicle -8.90555e-014 -1.20861e-013
rhumerus 40.9176 11.8493 -69.7647
rradius 38.9518
rwrist -13.6074
rhand -34.3804 -30.1745
rfingers 7.12502
rthumb -7.54678 -60.0199
lclavicle -8.90555e-014 -1.20861e-013
lhumerus 36.8379 -31.5335 81.7697
lradius 37.9542
lwrist 16.8282
lhand -45.9105 -30.8985
lfingers 7.12502
lthumb -18.6596 -1.77345
rfemur -54.1219 -8.24855 10.6086
rtibia 57.4422
rfoot -16.4574 -13.8658
rtoes 28.3101
lfemur -39.1142 7.89879 -10.4878
ltibia 80.0451
lfoot -25.9496 3.27106
ltoes -10.7318
535
root 3.58582 13.4542 -4.92805 -544.305 -138.015 513.953
lowerback 8.66358 0.152227 -4.93085
upperback 4.02588 -0.268191 -1.57635
thorax -0.666046 -0.207956 1.16475
lowerneck -3.9468 -1.61945 -0.649391
upperneck -33.2026 -3.14823 0.988454
head -9.89082 -1.71395 0.719012
rclavicle 3.33958e-014 3.18055e-015
rhumerus 45.1844 11.4369 -66.219
rradius 42.133
rwrist -15.1484
rhand -34.6047 -29.5941
rfingers 7.12502
rthumb -7.76326 -59.4316
lclavicle 3.33958e-014 3.18055e-015
lhumerus 43.1105 -32.5238 78.0783
lradius 41.784
lwrist 15.1933
lhand -46.7009 -32.6424
lfingers 7.12502
lthumb -19.4198 -3.59219
rfemur -55.9826 -7.3693 8.97495
rtibia 52.9654
rfoot -15.6268 -14.3951
rtoes 29.5919
lfemur -36.805 7.54228 -9.82713
ltibia 78.9687
lfoot -25.8809 2.5266
ltoes -10.3084
536
root 3.44921 13.5843 -4.89504 -545.582 -138.744 514.094
lowerback 8.30433 -0.00812506 -4.83844
upperback 3.86448 -0.450874 -1.57079
thorax -0.626293 -0.293907 1.13385
lowerneck -4.43653 -1.58969 -0.872656
upperneck -33.2277 -3.02041 1.31157
head -9.8037 -1.65325 0.855562
rclavicle 1.19271e-014 1.27222e-014
rhumerus 49.1517 10.3745 -63.0582
rradius 45.1798
rwrist -16.6312
rhand -34.8239 -29.4557
rfingers 7.12502
rthumb -7.9748 -59.2853
lclavicle 1.19271e-014 1.27222e-014
lhumerus 49.2829 -32.6337 73.8609
lradius 45.7152
lwrist 13.692
lhand -47.3765 -34.099
lfingers 7.12502
lthumb -20.0692 -5.11552
rfemur -57.8399 -6.74935 7.32696
rtibia 49.0042
rfoot -14.8086 -14.7523
rtoes 30.7686
lfemur -34.3088 7.2734 -9.28164
ltibia 77.6584
lfoot -25.7003 1.79085
ltoes -9.76346
537
root 3.31251 13.735 -4.8525 -546.981 -139.309 514.416
lowerback 7.86488 -0.102053 -4.75674
upperback 3.67526 -0.54527 -1.68282
thorax -0.57692 -0.335224 0.978543
lowerneck -5.03507 -1.55167 -0.961856
upperneck -33.2077 -2.85218 1.69909
head -9.68263 -1.59384 0.986525
rclavicle -7.07673e-014 -1.90833e-014
rhumerus 52.7765 8.79132 -60.4402
rradius 48.0075
rwrist -17.9118
rhand -35.0444 -29.5794
rfingers 7.12502
rthumb -8.18767 -59.4008
lclavicle -7.07673e-014 -1.90833e-014
lhumerus 55.1045 -31.803 69.4868
lradius 49.6403
lwrist 12.2252
lhand -47.9887 -35.5044
lfingers 7.12502
lthumb -20.6575 -6.58374
rfemur -59.7578 -6.43706 5.83413
rtibia 45.6831
rfoot -13.9097 -14.9383
rtoes 31.1038
lfemur -31.5719 7.08168 -8.86256
ltibia 76.0693
lfoot -25.348 1.13353
ltoes -9.44106
